<svg height="512" viewBox="0 0 58 58" width="512" xmlns="http://www.w3.org/2000/svg"><g id="Page-1" fill="none" fill-rule="evenodd"><g id="024---Selection-Agreement" fill-rule="nonzero" transform="translate(0 -1)"><path id="Shape" d="m38.666 27.924c-12 7.876-24.666-.547-24.666-11.924-.0001694-6.68588142 4.4246163-12.5647053 10.8494501-14.41471091 6.4248339-1.85000561 13.2984078.77550009 16.8538101 6.43766618 3.5554023 5.66216613 2.9341635 12.99383443-1.5232602 17.97704473z" fill="#4fba6f"/><path id="Shape" d="m26 23c-.5303896-.0001133-1.0390145-.2109013-1.414-.586l-3-3c-.7579444-.7847578-.7471047-2.0321696.0243628-2.8036372.7714676-.7714675 2.0188794-.7823072 2.8036372-.0243628l1.51 1.509 7.589-8.433c.738957-.82124742 2.0037526-.887957 2.825-.149s.887957 2.0037526.149 2.825l-9 10c-.3669351.4080566-.8854211.6474135-1.434.662z" fill="#ecf0f1"/><path id="Shape" d="m17.32 47.5c.0015827.2655205-.0423882.5293453-.13.78l-1.45 3.83c-.5407269 1.2056335-1.9262871 1.7822964-3.1627324 1.3163128-1.2364453-.4659837-1.8967636-1.8136843-1.5072676-3.0763128l1.41-3.74c.0772816-.2214308.1923134-.4278114.34-.61.6456456-.8608608 1.7697141-1.2119934 2.7905694-.8717082 1.0208554.3402851 1.7094306 1.2956322 1.7094306 2.3717082z" fill="#a56a43"/><path id="Shape" d="m22.35 48.33c.000322.2973446-.053909.5922256-.16.87l-1.77 4.67c-.4860106 1.2923463-1.9276537 1.9460106-3.22 1.46s-1.9460106-1.9276537-1.46-3.22l1.45-3.83.32-.84c.425937-1.1326843 1.6019827-1.7976827 2.7921505-1.5788295 1.1901677.2188531 2.052716 1.258717 2.0478495 2.4688295z" fill="#805333"/><path id="Shape" d="m31 53.71c.000322.2973446-.053909.5922256-.16.87l-.61 1.62-.45 1.18c-.5176704 1.2405869-1.9236928 1.8497251-3.1828056 1.378903-1.2591129-.4708221-1.9205069-1.8530327-1.4971944-3.128903l1.08-2.86c.44687-1.1130875 1.6212898-1.7519498 2.7985514-1.5223594 1.1772616.2295905 2.0255681 1.2629263 2.0214486 2.4623594z" fill="#805333"/><path id="Shape" d="m27.03 50.09c.000322.2973446-.053909.5922256-.16.87l-.69 1.81-1.08 2.86c-.4860106 1.2923463-1.9276537 1.9460106-3.22 1.46s-1.9460106-1.9276537-1.46-3.22l1.77-4.67c.425937-1.1326843 1.6019827-1.7976827 2.7921505-1.5788295 1.1901677.2188531 2.052716 1.258717 2.0478495 2.4688295z" fill="#a56a43"/><path id="Shape" d="m44.38 43.62c.5925908-1.2454601.0645722-2.7355466-1.18-3.33l-12.36-6.34-5.74 5.18c-.8768932.781958-2.1315821.9752528-3.2031643.493473-1.0715821-.4817799-1.7597398-1.5485723-1.7568357-2.723473-.0058996-.7401274.2692939-1.4549158.77-2l6.27-6.9.91-1c.5781184-.6377983 1.3991828-1.0011011 2.26-1l15.65-.02 3.28 18.02h-5.13c.0917873-.1168748.1690209-.2444781.23-.38z" fill="#a56a43"/><path id="Shape" d="m31.34 35.846c-.414101.0002935-.7855441-.2546721-.9341235-.6412001-.1485793-.386528-.0435537-.8246457.2641235-1.1017999l2.16-1.95c.4100714-.3700308 1.0424692-.3375714 1.4125.0725s.3375714 1.0424692-.0725 1.4125l-2.16 1.95c-.1836971.1659711-.4224298.257901-.67.258z" fill="#805333"/><path id="Shape" d="m56 46h-4.959c-.8114321-.0003939-1.5066185-.5806978-1.652-1.379l-3.389-18.641c-.0892806-.4899455.0435477-.9942433.3625962-1.376638.3190484-.3823946.7913901-.6034216 1.2894038-.603362h8.348c1.1045695 0 2 .8954305 2 2v18c0 1.1045695-.8954305 2-2 2z" fill="#3b97d3"/><path id="Shape" d="m44.38 43.62c-.0609791.1355219-.1382127.2631252-.23.38-.6959805.9927451-2.0105404 1.3319863-3.1.8.8695193.4164995 1.4220491 1.2958779 1.42 2.26-.0017493.3730315-.0835949.7413365-.24 1.08-.4147881.8710438-1.295247 1.4242525-2.26 1.42-.3698115-.0018061-.7348452-.0836828-1.07-.24 1.0455803.5063069 1.604615 1.6661501 1.3493202 2.7994679-.2552947 1.1333179-1.2576395 1.9414398-2.4193202 1.9505321-.3730315-.0017493-.7413365-.0835949-1.08-.24.8710438.4147881 1.4242525 1.295247 1.42 2.26-.0017493.3730315-.0835949.7413365-.24 1.08-.2838554.5965621-.7937491 1.0554065-1.4168409 1.2749901-.6230917.2195835-1.3080021.1817996-1.9031591-.1049901l-4.38-2.14.61-1.62c.106091-.2777744.160322-.5726554.16-.87.0041195-1.1994331-.844187-2.2327689-2.0214486-2.4623594-1.1772616-.2295904-2.3516814.4092719-2.7985514 1.5223594l.69-1.81c.106091-.2777744.160322-.5726554.16-.87.0048665-1.2101125-.8576818-2.2499764-2.0478495-2.4688295-1.1901678-.2188532-2.3662135.4461452-2.7921505 1.5788295.106091-.2777744.160322-.5726554.16-.87.0048665-1.2101125-.8576818-2.2499764-2.0478495-2.4688295-1.1901678-.2188532-2.3662135.4461452-2.7921505 1.5788295l-.32.84c.0876118-.2506547.1315827-.5144795.13-.78 0-1.076076-.6885752-2.0314231-1.7094306-2.3717082-1.0208553-.3402852-2.1449238.0108474-2.7905694.8717082h-4.1l3.28-18.02 15.18.02-6.27 6.9c-.5007061.5450842-.7758996 1.2598726-.77 2-.0029041 1.1749007.6852536 2.2416931 1.7568357 2.723473 1.0715822.4817798 2.3262711.288485 3.2031643-.493473l5.74-5.18 12.36 6.34c1.2445722.5944534 1.7725908 2.0845399 1.18 3.33z" fill="#fdd7ad"/><path id="Shape" d="m2 48h4.959c.81143208-.0003939 1.5066185-.5806978 1.652-1.379l3.389-18.641c.0892806-.4899455-.0435477-.9942433-.3625962-1.376638-.3190484-.3823946-.7913901-.6034216-1.2894038-.603362h-8.348c-1.1045695 0-2 .8954305-2 2v18c0 1.1045695.8954305 2 2 2z" fill="#3b97d3"/></g></g></svg>
