<svg id="Capa_1" enable-background="new 0 0 512 512" height="512" viewBox="0 0 512 512" width="512" xmlns="http://www.w3.org/2000/svg"><g><path d="m328.365 130.657-52.658 91.21 27.766 5.241h47.464v-86.762z" fill="#596c76"/><g><g><g><ellipse cx="256" cy="51.2" fill="#ffdcd5" rx="51.2" ry="51.2" transform="matrix(.191 -.982 .982 .191 156.877 292.721)"/></g><path d="m183.624 130.644c12.405-17.113 32.557-28.244 55.31-28.244h34.133c37.703 0 68.267 30.564 68.267 68.267v42.667c0 4.713-3.82 8.533-8.533 8.533h-96.507z" fill="#26a6fe"/><path d="m256 0c-4.08 0-8.043.491-11.847 1.393 22.562 5.347 39.353 25.61 39.353 49.807s-16.791 44.46-39.353 49.807c3.804.902 7.767 1.393 11.847 1.393 28.277 0 51.2-22.923 51.2-51.2s-22.923-51.2-51.2-51.2z" fill="#ffc4bd"/><g><path d="m273.067 102.4h-23.818c37.703 0 68.267 30.564 68.267 68.267v42.667c0 4.713-3.821 8.534-8.533 8.534h23.817c4.713 0 8.533-3.821 8.533-8.534v-42.667c0-37.703-30.564-68.267-68.266-68.267z" fill="#0593fc"/></g></g></g><g><g><ellipse cx="78.638" cy="153.6" fill="#d88a55" rx="51.2" ry="51.2" transform="matrix(.868 -.496 .496 .868 -65.826 59.223)"/><g><path d="m111.25 256.002c-8.618-19.299-8.181-42.318 3.195-62.022l17.067-29.56c18.851-32.652 60.602-43.839 93.254-24.987l36.95 21.333c4.081 2.356 5.48 7.575 3.123 11.657l-48.253 83.577z" fill="#97d729"/></g><path d="m34.298 128c-2.04 3.533-3.596 7.211-4.717 10.956 15.912-16.866 41.855-21.276 62.811-9.177 20.955 12.099 30.108 36.771 23.458 58.984 2.683-2.844 5.09-6.03 7.13-9.563 14.138-24.489 5.748-55.802-18.74-69.941-24.491-14.138-55.804-5.748-69.942 18.741z" fill="#c57a44"/><g><path d="m131.512 164.42-11.909 20.627c18.851-32.651 60.603-43.839 93.254-24.987l36.95 21.333c4.081 2.356 5.48 7.575 3.123 11.657l11.909-20.627c2.357-4.082.958-9.3-3.123-11.657l-36.95-21.333c-32.652-18.852-74.403-7.665-93.254 24.987z" fill="#8bc727"/></g></g></g><g><g><g><ellipse cx="78.638" cy="358.4" fill="#ffdcd5" rx="51.2" ry="51.2" transform="matrix(.873 -.488 .488 .873 -164.76 83.824)"/></g><g><path d="m197.496 222.935-13.193-2.547-61.074 34.365-11.228 33.514 4.187 32.773 15.323 26.54c11.376 19.704 31.092 31.592 52.115 33.778l52.667-91.225z" fill="#fe93bb"/></g><path d="m34.298 384c2.04 3.533 4.447 6.72 7.13 9.563-6.65-22.213 2.502-46.886 23.458-58.984 20.955-12.099 46.898-7.689 62.811 9.177-1.121-3.745-2.677-7.423-4.717-10.956-14.138-24.489-45.452-32.879-69.94-18.741-24.491 14.139-32.881 45.452-18.742 69.941z" fill="#ffc4bd"/><g><path d="m114.445 318.02 11.909 20.627c-18.851-32.651-7.664-74.403 24.987-93.254l36.95-21.333c4.081-2.356 9.3-.958 11.657 3.123l-11.909-20.627c-2.356-4.082-7.575-5.48-11.657-3.124l-36.95 21.333c-32.651 18.852-43.838 60.603-24.987 93.255z" fill="#fe5694"/></g></g></g><g><g><circle cx="256" cy="460.8" fill="#d88a55" r="51.2"/><g><path d="m275.707 290.133h-77.879l-8.279 6.1v60.677l14.063 29.601 10.099 18.256c7.805 3.106 16.31 4.832 25.222 4.832h34.133c22.752 0 42.905-11.131 55.31-28.244z" fill="#fee45a"/></g><path d="m256 512c4.08 0 8.043-.491 11.847-1.393-22.562-5.348-39.353-25.61-39.353-49.807s16.791-44.46 39.353-49.807c-3.804-.902-7.767-1.393-11.847-1.393-28.277 0-51.2 22.923-51.2 51.2s22.923 51.2 51.2 51.2z" fill="#c57a44"/><g><path d="m238.933 409.6h23.818c-37.703 0-68.267-30.564-68.267-68.267v-42.667c0-4.713 3.821-8.533 8.533-8.533h-23.817c-4.713 0-8.533 3.82-8.533 8.533v42.667c0 37.703 30.564 68.267 68.266 68.267z" fill="#fac600"/></g></g></g><g><g><g><circle cx="433.362" cy="358.4" fill="#ffdcd5" r="51.2"/></g><path d="m400.75 255.998c8.618 19.3 8.181 42.317-3.195 62.022l-17.066 29.56c-18.851 32.652-60.603 43.839-93.254 24.987l-36.95-21.333c-4.081-2.356-5.48-7.575-3.123-11.657l48.252-83.577z" fill="#e30256"/><path d="m477.702 384c2.04-3.533 3.596-7.211 4.717-10.956-15.912 16.866-41.855 21.276-62.811 9.177-20.955-12.098-30.108-36.771-23.458-58.984-2.683 2.844-5.09 6.03-7.13 9.563-14.138 24.488-5.748 55.802 18.74 69.94 24.491 14.139 55.804 5.749 69.942-18.74z" fill="#ffc4bd"/><path d="m380.488 347.58 11.909-20.627c-18.851 32.651-60.603 43.839-93.254 24.987l-36.95-21.333c-4.082-2.356-5.48-7.575-3.123-11.657l-11.909 20.627c-2.356 4.081-.958 9.3 3.123 11.657l36.95 21.333c32.652 18.852 74.403 7.665 93.254-24.987z" fill="#b30059"/></g></g><g><g><ellipse cx="433.362" cy="153.6" fill="#d88a55" rx="51.2" ry="51.2" transform="matrix(.318 -.948 .948 .318 149.767 515.497)"/><g><path d="m397.555 193.98-17.066-29.56c-11.376-19.704-31.092-31.591-52.115-33.778l-.009.015c8.15 11.244 12.968 25.061 12.968 40.01v42.667c0 4.713-3.821 8.534-8.533 8.534h-57.093l48.253 83.577c2.356 4.081 7.575 5.48 11.657 3.124l36.95-21.333c32.652-18.853 43.839-60.604 24.988-93.256z" fill="#596c76"/></g><path d="m477.702 128c-2.04-3.533-4.447-6.72-7.13-9.563 6.65 22.213-2.502 46.886-23.458 58.984-20.955 12.099-46.898 7.689-62.811-9.177 1.121 3.745 2.677 7.423 4.717 10.956 14.138 24.489 45.452 32.879 69.94 18.741 24.491-14.139 32.881-45.452 18.742-69.941z" fill="#c57a44"/><g><path d="m397.555 193.98-11.909-20.627c18.851 32.651 7.664 74.403-24.987 93.254l-36.95 21.333c-4.082 2.357-9.301.958-11.657-3.123l11.909 20.627c2.356 4.082 7.575 5.48 11.657 3.124l36.95-21.333c32.651-18.852 43.838-60.603 24.987-93.255z" fill="#465a61"/></g></g></g></g></svg>
