<?xml version="1.0" encoding="iso-8859-1"?>
<!-- Generator: Adobe Illustrator 19.0.0, SVG Export Plug-In . SVG Version: 6.00 Build 0)  -->
<svg version="1.1" id="Capa_1" xmlns="http://www.w3.org/2000/svg" xmlns:xlink="http://www.w3.org/1999/xlink" x="0px" y="0px"
	 viewBox="0 0 512 512" style="enable-background:new 0 0 512 512;" xml:space="preserve">
<g style="opacity:0.08;">
	<circle cx="256" cy="260.197" r="251.803"/>
</g>
<linearGradient id="SVGID_1_" gradientUnits="userSpaceOnUse" x1="-12.6621" y1="576.4395" x2="-12.6621" y2="636.4395" gradientTransform="matrix(8.3934 0 0 -8.3934 362.2788 5341.9175)">
	<stop  offset="0" style="stop-color:#3871E9"/>
	<stop  offset="1" style="stop-color:#61C5F6"/>
</linearGradient>
<circle style="fill:url(#SVGID_1_);" cx="256" cy="251.803" r="251.803"/>
<g style="opacity:0.16;">

		<linearGradient id="SVGID_2_" gradientUnits="userSpaceOnUse" x1="-12.6621" y1="576.4395" x2="-12.6621" y2="636.4395" gradientTransform="matrix(8.3934 0 0 -8.3934 362.2788 5341.9175)">
		<stop  offset="0" style="stop-color:#000000"/>
		<stop  offset="0.36" style="stop-color:#000000;stop-opacity:0"/>
	</linearGradient>
	<path style="fill:url(#SVGID_2_);" d="M256,0C116.929,0,4.197,112.732,4.197,251.803S116.929,503.607,256,503.607
		s251.803-112.732,251.803-251.803S395.071,0,256,0z M256,486.82c-129.796,0-235.016-105.22-235.016-235.016
		S126.204,16.787,256,16.787s235.016,105.22,235.016,235.016C490.874,381.541,385.737,486.677,256,486.82z"/>
</g>
<linearGradient id="SVGID_3_" gradientUnits="userSpaceOnUse" x1="-12.6621" y1="579.4395" x2="-12.6621" y2="633.4395" gradientTransform="matrix(8.3934 0 0 -8.3934 362.2788 5341.9175)">
	<stop  offset="0" style="stop-color:#E2EFF6"/>
	<stop  offset="1" style="stop-color:#FFFFFF"/>
</linearGradient>
<path style="fill:url(#SVGID_3_);" d="M256,478.426c-125.163,0-226.623-101.46-226.623-226.623S130.837,25.18,256,25.18
	s226.623,101.46,226.623,226.623C482.48,376.908,381.104,478.284,256,478.426z M256,41.967
	c-115.888,0-209.836,93.948-209.836,209.836S140.112,461.639,256,461.639s209.836-93.948,209.836-209.836
	C465.702,135.965,371.838,42.102,256,41.967z"/>
<linearGradient id="SVGID_4_" gradientUnits="userSpaceOnUse" x1="-12.6626" y1="588.4504" x2="-12.6626" y2="624.4395" gradientTransform="matrix(8.3934 0 0 -8.3934 362.2788 5341.9175)">
	<stop  offset="0" style="stop-color:#E2EFF6"/>
	<stop  offset="1" style="stop-color:#FFFFFF"/>
</linearGradient>
<path style="fill:url(#SVGID_4_);" d="M369.681,188.298c0.067,6.253-4.331,11.667-10.467,12.884
	c-13.346,2.929-40.28,9.829-56.681,13.606c-7.63,1.729-13.043,8.528-13.01,16.359c0.067,17.584,0.294,46.668,1.032,54.415
	c0.907,11.348,2.409,22.629,4.507,33.817c2.031,11.239,4.608,22.419,7.722,33.448c3.005,10.903,6.606,21.63,10.786,32.138
	l0.218,0.546c2.594,6.446-0.537,13.782-6.992,16.367c-6.169,2.476-13.194-0.269-16.048-6.27
	c-5.313-11.264-9.988-22.822-13.992-34.623c-4.029-11.625-7.504-23.435-10.416-35.429c-0.957-3.869-1.813-7.764-2.636-11.675
	c-0.395-1.93-2.107-3.324-4.088-3.324h-7.235c-1.981,0-3.693,1.393-4.096,3.332c-0.814,3.911-1.679,7.806-2.636,11.675
	c-2.904,11.994-6.379,23.804-10.416,35.429c-4.012,11.793-8.679,23.351-13.992,34.623c-2.988,6.278-10.5,8.939-16.77,5.951
	c-6.001-2.854-8.746-9.887-6.27-16.048l0.218-0.546c4.18-10.509,7.781-21.235,10.786-32.138c3.114-11.029,5.691-22.209,7.722-33.448
	c2.098-11.188,3.609-22.469,4.507-33.817c0.739-7.747,0.957-36.83,1.032-54.415c0.025-7.823-5.38-14.621-13.01-16.359
	c-16.401-3.785-43.335-10.676-56.681-13.606c-6.136-1.217-10.534-6.631-10.467-12.884c0.26-6.95,6.11-12.372,13.06-12.103
	c0.739,0.025,1.469,0.118,2.191,0.277l0,0l0.764,0.168c32.004,7.688,64.755,11.784,97.666,12.212
	c32.911-0.428,65.67-4.532,97.666-12.212l0.764-0.168l0,0c6.799-1.477,13.505,2.837,14.974,9.636
	C369.563,186.83,369.656,187.568,369.681,188.298z M256,167.869c18.541,0,33.574-15.033,33.574-33.574S274.541,100.721,256,100.721
	s-33.574,15.033-33.574,33.574S237.459,167.869,256,167.869z"/>
<g style="opacity:0.16;">
	<path d="M256,0C116.929,0,4.197,112.732,4.197,251.803S116.929,503.607,256,503.607s251.803-112.732,251.803-251.803
		S395.071,0,256,0z M256,495.213c-134.429,0-243.41-108.98-243.41-243.41S121.571,8.393,256,8.393s243.41,108.98,243.41,243.41
		S390.429,495.213,256,495.213z"/>
</g>
<g>
</g>
<g>
</g>
<g>
</g>
<g>
</g>
<g>
</g>
<g>
</g>
<g>
</g>
<g>
</g>
<g>
</g>
<g>
</g>
<g>
</g>
<g>
</g>
<g>
</g>
<g>
</g>
<g>
</g>
</svg>
