<svg id="Calque_1" data-name="Calque 1" xmlns="http://www.w3.org/2000/svg" xmlns:xlink="http://www.w3.org/1999/xlink" viewBox="15 23 203 60"><defs><style>.cls-1{font-size:26px;fill:#514f57;font-family:Luciole-Bold, Luciole;font-weight:700;}.cls-2{font-family:Luciole-Regular, Luciole;font-weight:400;}.cls-3{letter-spacing:-0.01em;}.cls-4{fill:url(#Dégradé_sans_nom_23);}.cls-5{fill:url(#Dégradé_sans_nom_16);}</style><linearGradient id="Dégradé_sans_nom_23" x1="22.98" y1="76.25" x2="59.75" y2="33.65" gradientUnits="userSpaceOnUse"><stop offset="0" stop-color="#444549"/><stop offset="1" stop-color="#72747b"/></linearGradient><radialGradient id="Dégradé_sans_nom_16" cx="46.62" cy="71.75" r="55.25" gradientUnits="userSpaceOnUse"><stop offset="0" stop-color="#eb9747"/><stop offset="1" stop-color="#f8db4f"/></radialGradient></defs><text class="cls-1" transform="translate(101.41 51.72)">Connect<tspan class="cls-2"><tspan class="cls-3" x="0" y="22">A</tspan><tspan x="17.55" y="22">ccess</tspan></tspan></text><path class="cls-4" d="M40.64,75.64A20.06,20.06,0,0,1,26.45,41.39L36.52,31.31a4.86,4.86,0,0,1,6.88,6.88L33.33,48.26A10.34,10.34,0,1,0,48,62.89l3.09-3.09a4.86,4.86,0,0,1,6.88,6.88l-3.1,3.09A20,20,0,0,1,40.64,75.64Z"/><path class="cls-5" d="M70.13,54.48a4.86,4.86,0,0,0-6.88-6.88l-2.81,2.8a4.86,4.86,0,1,0,6.88,6.88Z"/><path class="cls-5" d="M81,36.74a20.07,20.07,0,0,0-28.39,0L38,51.39a4.86,4.86,0,0,0,6.88,6.88L59.48,43.62A10.34,10.34,0,0,1,74.11,58.25l-7.47,7.46a4.86,4.86,0,1,0,6.88,6.88L81,65.12A20.08,20.08,0,0,0,81,36.74Z"/></svg>
