<svg id="Calque_1" data-name="Calque 1" xmlns="http://www.w3.org/2000/svg" xmlns:xlink="http://www.w3.org/1999/xlink" viewBox="15 25 203 60"><defs><style>.cls-1{font-size:26px;font-family:Luciole-Bold, Luciole;font-weight:700;}.cls-1,.cls-4{fill:#fff;}.cls-2{font-family:Luciole-Regular, Luciole;font-weight:400;}.cls-3{letter-spacing:-0.01em;}.cls-5{fill:url(#Dégradé_sans_nom_16);}</style><radialGradient id="Dégradé_sans_nom_16" cx="46.62" cy="73.8" r="55.25" gradientUnits="userSpaceOnUse"><stop offset="0" stop-color="#eb9747"/><stop offset="1" stop-color="#f8db4f"/></radialGradient></defs><text class="cls-1" transform="translate(101.41 53.77)">Connect<tspan class="cls-2"><tspan class="cls-3" x="0" y="22">A</tspan><tspan x="17.55" y="22">ccess</tspan></tspan></text><path class="cls-4" d="M40.64,77.69A20.06,20.06,0,0,1,26.45,43.44L36.52,33.36a4.86,4.86,0,1,1,6.88,6.88L33.33,50.32A10.34,10.34,0,1,0,48,65l3.09-3.1a4.86,4.86,0,0,1,6.88,6.88l-3.1,3.09A20,20,0,0,1,40.64,77.69Z"/><path class="cls-5" d="M70.13,56.53a4.86,4.86,0,0,0-6.88-6.88l-2.81,2.81a4.86,4.86,0,0,0,6.88,6.88Z"/><path class="cls-5" d="M81,38.79a20.07,20.07,0,0,0-28.39,0L38,53.44a4.86,4.86,0,0,0,6.88,6.88L59.48,45.67A10.34,10.34,0,1,1,74.11,60.3l-7.47,7.46a4.86,4.86,0,1,0,6.88,6.88L81,67.18A20.09,20.09,0,0,0,81,38.79Z"/></svg>
